<svg width="24" height="24" fill="none" xmlns="http://www.w3.org/2000/svg"><circle cx="12" cy="12" r="11" fill="#F0F0F0"/><path d="M11.521 12H23c0-.993-.133-1.955-.38-2.87H11.522V12zM11.521 6.26h9.864a11.057 11.057 0 00-2.538-2.869h-7.326v2.87zM12 23c2.588 0 4.968-.895 6.847-2.391H5.152A10.953 10.953 0 0012 23zM2.614 17.74h18.771c.541-.883.96-1.847 1.236-2.87H1.379a10.934 10.934 0 001.235 2.87z" fill="#D80027"/><path fill-rule="evenodd" clip-rule="evenodd" d="M7.098 2.718H6.095A10.948 10.948 0 0112 1v11H1c0-.464.03-.922.085-1.372l.559-.405.932.677-.356-1.096.932-.677H2l-.313-.962a10.9 10.9 0 01.36-.854l.529.385-.284-.873c.085-.159.174-.315.267-.47l.593-.43h-.321a11.06 11.06 0 012.133-2.379l-.307.947.932-.677.933.677-.357-1.096.933-.677zm-1.509 7.505l.933.677-.357-1.096.933-.677H5.945L5.59 8.03l-.356 1.097H4.081l.932.677-.356 1.096.932-.677zM6.165 6.6l.357 1.096-.933-.678-.932.678.356-1.096-.932-.678h1.152l.356-1.096.356 1.096h1.153l-.933.678zm3.37 3.623l.932.677-.356-1.096.932-.677H9.892L9.535 8.03l-.356 1.097H8.026l.933.677-.357 1.096.933-.677zM10.11 6.6l.356 1.096-.932-.678-.933.678L8.96 6.6l-.933-.678H9.18l.356-1.096.356 1.096h1.152l-.932.678zm.356-2.109l-.356-1.096.932-.677H9.892l-.356-1.096-.356 1.096H8.026l.933.677-.357 1.096.933-.677.932.677z" fill="#0052B4"/></svg>